<svg xmlns="http://www.w3.org/2000/svg" viewBox="0 0 32 32" role="img" aria-labelledby="whatsapp-title">
  <title id="whatsapp-title">WhatsApp</title>
  <circle cx="16" cy="16" r="15" fill="#ffffff"/>
  <path fill="#25D366" d="M16 4.3A11.7 11.7 0 0 0 6 22l-1.4 5.1 5.2-1.4A11.7 11.7 0 1 0 16 4.3Zm0 2.3a9.4 9.4 0 0 1 8.1 14.2 9.4 9.4 0 0 1-11.6 3.4l-.5-.2-3 .8.8-2.9-.3-.5A9.4 9.4 0 0 1 16 6.6Zm5.6 12.6c-.3-.2-1.8-.9-2.1-1-.3-.1-.5-.2-.8.2-.2.3-.9 1.1-1.1 1.3-.2.2-.4.3-.8.1-.4-.2-1.5-.5-2.8-1.7-1-1-1.7-2.1-1.9-2.5-.2-.3 0-.5.2-.7l.6-.7c.2-.2.2-.4.4-.6.1-.2.1-.5 0-.7-.1-.2-.8-2-1.1-2.7-.3-.7-.6-.6-.8-.6h-.7c-.2 0-.6.1-1 .5-.3.4-1.3 1.3-1.3 3.1 0 1.8 1.3 3.6 1.5 3.8.2.3 2.6 4 6.4 5.6.9.4 1.6.6 2.1.8.9.3 1.7.2 2.3.1.7-.1 2.1-.8 2.4-1.7.3-.8.3-1.6.2-1.7-.1-.2-.4-.3-.7-.5Z"/>
</svg>
